<svg width="1440" height="482" viewBox="0 0 1440 482" fill="none" xmlns="http://www.w3.org/2000/svg">
<g filter="url(#filter0_b_441_218)">
<rect width="1440" height="481" fill="url(#paint0_linear_441_218)"/>
</g>
<g filter="url(#filter1_b_441_218)">
<circle cx="74" cy="284" r="10" fill="#FAAFAF"/>
</g>
<g filter="url(#filter2_b_441_218)">
<circle cx="100" cy="29" r="20" fill="#C499E1"/>
</g>
<g filter="url(#filter3_b_441_218)">
<circle cx="193" cy="174" r="30" fill="#FCDAAA"/>
</g>
<path fill-rule="evenodd" clip-rule="evenodd" d="M1440 300.446C1426.58 286.982 1410.73 275.49 1392.68 266.692C1305.81 224.336 1201.05 260.426 1158.69 347.3C1137.51 390.741 1135.95 438.654 1150.54 481H1440V300.446Z" fill="white"/>
<path fill-rule="evenodd" clip-rule="evenodd" d="M1440 334.907C1436.87 330.485 1433.5 326.228 1429.89 322.155C1416.84 307.404 1401.01 295.369 1383.3 286.736C1365.59 278.104 1346.36 273.043 1326.7 271.843C1307.04 270.644 1287.33 273.328 1268.71 279.744C1250.08 286.16 1232.91 296.181 1218.16 309.236C1203.4 322.291 1191.37 338.123 1182.74 355.829L1317.56 421.565L1440 481.258V334.907Z" fill="url(#paint1_linear_441_218)" fill-opacity="0.64"/>
<defs>
<filter id="filter0_b_441_218" x="-4" y="-4" width="1448" height="489" filterUnits="userSpaceOnUse" color-interpolation-filters="sRGB">
<feFlood flood-opacity="0" result="BackgroundImageFix"/>
<feGaussianBlur in="BackgroundImageFix" stdDeviation="2"/>
<feComposite in2="SourceAlpha" operator="in" result="effect1_backgroundBlur_441_218"/>
<feBlend mode="normal" in="SourceGraphic" in2="effect1_backgroundBlur_441_218" result="shape"/>
</filter>
<filter id="filter1_b_441_218" x="60" y="270" width="28" height="28" filterUnits="userSpaceOnUse" color-interpolation-filters="sRGB">
<feFlood flood-opacity="0" result="BackgroundImageFix"/>
<feGaussianBlur in="BackgroundImageFix" stdDeviation="2"/>
<feComposite in2="SourceAlpha" operator="in" result="effect1_backgroundBlur_441_218"/>
<feBlend mode="normal" in="SourceGraphic" in2="effect1_backgroundBlur_441_218" result="shape"/>
</filter>
<filter id="filter2_b_441_218" x="76" y="5" width="48" height="48" filterUnits="userSpaceOnUse" color-interpolation-filters="sRGB">
<feFlood flood-opacity="0" result="BackgroundImageFix"/>
<feGaussianBlur in="BackgroundImageFix" stdDeviation="2"/>
<feComposite in2="SourceAlpha" operator="in" result="effect1_backgroundBlur_441_218"/>
<feBlend mode="normal" in="SourceGraphic" in2="effect1_backgroundBlur_441_218" result="shape"/>
</filter>
<filter id="filter3_b_441_218" x="159" y="140" width="68" height="68" filterUnits="userSpaceOnUse" color-interpolation-filters="sRGB">
<feFlood flood-opacity="0" result="BackgroundImageFix"/>
<feGaussianBlur in="BackgroundImageFix" stdDeviation="2"/>
<feComposite in2="SourceAlpha" operator="in" result="effect1_backgroundBlur_441_218"/>
<feBlend mode="normal" in="SourceGraphic" in2="effect1_backgroundBlur_441_218" result="shape"/>
</filter>
<linearGradient id="paint0_linear_441_218" x1="0" y1="240.5" x2="1440" y2="240.5" gradientUnits="userSpaceOnUse">
<stop stop-color="#8A34C3"/>
<stop offset="0.845" stop-color="#3E42A3"/>
</linearGradient>
<linearGradient id="paint1_linear_441_218" x1="1365.27" y1="295.19" x2="1362.57" y2="404.567" gradientUnits="userSpaceOnUse">
<stop stop-color="#FEB010"/>
<stop offset="1" stop-color="#FEB010" stop-opacity="0.26"/>
</linearGradient>
</defs>
</svg>
